<svg width="290" height="59" viewBox="0 0 290 59" fill="none" xmlns="http://www.w3.org/2000/svg">
<rect y="0.0410004" width="290" height="58.4387" rx="5" fill="#FCA60F"/>
<path d="M69.504 23.7047C70.784 23.7047 71.76 24.0887 72.432 24.8567C73.12 25.6087 73.464 26.8327 73.464 28.5287V34.4327C73.464 34.8967 73.32 35.2567 73.032 35.5127C72.76 35.7527 72.4 35.8727 71.952 35.8727C71.52 35.8727 71.16 35.7527 70.872 35.5127C70.6 35.2567 70.464 34.8967 70.464 34.4327V28.5287C70.464 27.6487 70.304 27.0247 69.984 26.6567C69.68 26.2727 69.208 26.0807 68.568 26.0807C67.784 26.0807 67.16 26.3527 66.696 26.8967C66.232 27.4247 66 28.1527 66 29.0807V34.4327C66 34.8967 65.856 35.2567 65.568 35.5127C65.296 35.7527 64.944 35.8727 64.512 35.8727C64.08 35.8727 63.72 35.7527 63.432 35.5127C63.144 35.2567 63 34.8967 63 34.4327V28.5287C63 27.6487 62.84 27.0247 62.52 26.6567C62.216 26.2727 61.744 26.0807 61.104 26.0807C60.32 26.0807 59.696 26.3527 59.232 26.8967C58.784 27.4247 58.56 28.1527 58.56 29.0807V34.4327C58.56 34.8967 58.416 35.2567 58.128 35.5127C57.84 35.7527 57.48 35.8727 57.048 35.8727C56.616 35.8727 56.256 35.7527 55.968 35.5127C55.696 35.2567 55.56 34.8967 55.56 34.4327V25.1447C55.56 24.6967 55.704 24.3527 55.992 24.1127C56.28 23.8727 56.64 23.7527 57.072 23.7527C57.488 23.7527 57.824 23.8727 58.08 24.1127C58.352 24.3367 58.488 24.6647 58.488 25.0967V25.6727C58.856 25.0327 59.344 24.5447 59.952 24.2087C60.576 23.8727 61.288 23.7047 62.088 23.7047C63.848 23.7047 65.024 24.4407 65.616 25.9127C65.968 25.2407 66.488 24.7047 67.176 24.3047C67.864 23.9047 68.64 23.7047 69.504 23.7047ZM81.6011 23.7047C83.2331 23.7047 84.4411 24.1127 85.2251 24.9287C86.0251 25.7287 86.4251 26.9527 86.4251 28.6007V34.4567C86.4251 34.8887 86.2971 35.2327 86.0411 35.4887C85.7851 35.7287 85.4331 35.8487 84.9851 35.8487C84.5691 35.8487 84.2251 35.7207 83.9531 35.4647C83.6971 35.2087 83.5691 34.8727 83.5691 34.4567V33.9287C83.2971 34.5527 82.8651 35.0407 82.2731 35.3927C81.6971 35.7447 81.0251 35.9207 80.2571 35.9207C79.4731 35.9207 78.7611 35.7607 78.1211 35.4407C77.4811 35.1207 76.9771 34.6807 76.6091 34.1207C76.2411 33.5607 76.0571 32.9367 76.0571 32.2487C76.0571 31.3847 76.2731 30.7047 76.7051 30.2087C77.1531 29.7127 77.8731 29.3527 78.8651 29.1287C79.8571 28.9047 81.2251 28.7927 82.9691 28.7927H83.5691V28.2407C83.5691 27.4567 83.4011 26.8887 83.0651 26.5367C82.7291 26.1687 82.1851 25.9847 81.4331 25.9847C80.9691 25.9847 80.4971 26.0567 80.0171 26.2007C79.5371 26.3287 78.9691 26.5207 78.3131 26.7767C77.8971 26.9847 77.5931 27.0887 77.4011 27.0887C77.1131 27.0887 76.8731 26.9847 76.6811 26.7767C76.5051 26.5687 76.4171 26.2967 76.4171 25.9607C76.4171 25.6887 76.4811 25.4567 76.6091 25.2647C76.7531 25.0567 76.9851 24.8647 77.3051 24.6887C77.8651 24.3847 78.5291 24.1447 79.2971 23.9687C80.0811 23.7927 80.8491 23.7047 81.6011 23.7047ZM80.8571 33.7607C81.6571 33.7607 82.3051 33.4967 82.8011 32.9687C83.3131 32.4247 83.5691 31.7287 83.5691 30.8807V30.3767H83.1371C82.0651 30.3767 81.2331 30.4247 80.6411 30.5207C80.0491 30.6167 79.6251 30.7847 79.3691 31.0247C79.1131 31.2647 78.9851 31.5927 78.9851 32.0087C78.9851 32.5207 79.1611 32.9447 79.5131 33.2807C79.8811 33.6007 80.3291 33.7607 80.8571 33.7607ZM99.9141 33.4007C100.234 33.7047 100.394 34.0487 100.394 34.4327C100.394 34.8007 100.258 35.1287 99.9861 35.4167C99.7301 35.7047 99.4261 35.8487 99.0741 35.8487C98.7221 35.8487 98.3941 35.7047 98.0901 35.4167L92.4741 30.3287V34.4327C92.4741 34.8967 92.3301 35.2487 92.0421 35.4887C91.7541 35.7287 91.3941 35.8487 90.9621 35.8487C90.5301 35.8487 90.1701 35.7287 89.8821 35.4887C89.6101 35.2487 89.4741 34.8967 89.4741 34.4327V20.1047C89.4741 19.6407 89.6101 19.2887 89.8821 19.0487C90.1701 18.8087 90.5301 18.6887 90.9621 18.6887C91.3941 18.6887 91.7541 18.8087 92.0421 19.0487C92.3301 19.2887 92.4741 19.6407 92.4741 20.1047V29.1287L97.6101 24.2087C97.8981 23.9207 98.2261 23.7767 98.5941 23.7767C98.9621 23.7767 99.2821 23.9127 99.5541 24.1847C99.8261 24.4567 99.9621 24.7767 99.9621 25.1447C99.9621 25.5127 99.8101 25.8487 99.5061 26.1527L95.7381 29.6567L99.9141 33.4007ZM111.465 32.5127C111.737 32.5127 111.953 32.6167 112.113 32.8247C112.289 33.0327 112.377 33.3127 112.377 33.6647C112.377 34.1607 112.081 34.5767 111.489 34.9127C110.945 35.2167 110.329 35.4647 109.641 35.6567C108.953 35.8327 108.297 35.9207 107.673 35.9207C105.785 35.9207 104.289 35.3767 103.185 34.2887C102.081 33.2007 101.529 31.7127 101.529 29.8247C101.529 28.6247 101.769 27.5607 102.249 26.6327C102.729 25.7047 103.401 24.9847 104.265 24.4727C105.145 23.9607 106.137 23.7047 107.241 23.7047C108.297 23.7047 109.217 23.9367 110.001 24.4007C110.785 24.8647 111.393 25.5207 111.825 26.3687C112.257 27.2167 112.473 28.2167 112.473 29.3687C112.473 30.0567 112.169 30.4007 111.561 30.4007H104.481C104.577 31.5047 104.889 32.3207 105.417 32.8487C105.945 33.3607 106.713 33.6167 107.721 33.6167C108.233 33.6167 108.681 33.5527 109.065 33.4247C109.465 33.2967 109.913 33.1207 110.409 32.8967C110.889 32.6407 111.241 32.5127 111.465 32.5127ZM107.313 25.8167C106.497 25.8167 105.841 26.0727 105.345 26.5847C104.865 27.0967 104.577 27.8327 104.481 28.7927H109.905C109.873 27.8167 109.633 27.0807 109.185 26.5847C108.737 26.0727 108.113 25.8167 107.313 25.8167ZM129.627 24.6167C129.755 24.3287 129.923 24.1207 130.131 23.9927C130.355 23.8487 130.595 23.7767 130.851 23.7767C131.219 23.7767 131.547 23.9047 131.835 24.1607C132.139 24.4007 132.291 24.7047 132.291 25.0727C132.291 25.2487 132.243 25.4327 132.147 25.6247L125.595 39.3527C125.323 39.8967 124.899 40.1687 124.323 40.1687C123.955 40.1687 123.627 40.0487 123.339 39.8087C123.067 39.5847 122.931 39.2967 122.931 38.9447C122.931 38.7687 122.979 38.5687 123.075 38.3447L124.707 34.9127L120.243 25.6247C120.163 25.4647 120.123 25.2807 120.123 25.0727C120.123 24.7047 120.275 24.3927 120.579 24.1367C120.899 23.8807 121.259 23.7527 121.659 23.7527C121.931 23.7527 122.179 23.8247 122.403 23.9687C122.627 24.0967 122.803 24.3047 122.931 24.5927L126.291 32.0087L129.627 24.6167ZM139.24 35.9207C138.04 35.9207 136.984 35.6727 136.072 35.1767C135.176 34.6807 134.48 33.9687 133.984 33.0407C133.488 32.1127 133.24 31.0327 133.24 29.8007C133.24 28.5687 133.488 27.4967 133.984 26.5847C134.48 25.6567 135.176 24.9447 136.072 24.4487C136.984 23.9527 138.04 23.7047 139.24 23.7047C140.44 23.7047 141.488 23.9527 142.384 24.4487C143.296 24.9447 143.992 25.6567 144.472 26.5847C144.968 27.4967 145.216 28.5687 145.216 29.8007C145.216 31.0327 144.968 32.1127 144.472 33.0407C143.992 33.9687 143.296 34.6807 142.384 35.1767C141.488 35.6727 140.44 35.9207 139.24 35.9207ZM139.216 33.5927C140.192 33.5927 140.936 33.2727 141.448 32.6327C141.96 31.9927 142.216 31.0487 142.216 29.8007C142.216 28.5687 141.96 27.6327 141.448 26.9927C140.936 26.3367 140.2 26.0087 139.24 26.0087C138.28 26.0087 137.536 26.3367 137.008 26.9927C136.496 27.6327 136.24 28.5687 136.24 29.8007C136.24 31.0487 136.496 31.9927 137.008 32.6327C137.52 33.2727 138.256 33.5927 139.216 33.5927ZM156.957 23.7527C157.421 23.7527 157.789 23.8807 158.061 24.1367C158.333 24.3927 158.469 24.7367 158.469 25.1687V34.4807C158.469 34.8967 158.325 35.2327 158.037 35.4887C157.765 35.7447 157.405 35.8727 156.957 35.8727C156.525 35.8727 156.181 35.7527 155.925 35.5127C155.669 35.2727 155.541 34.9447 155.541 34.5287V33.9287C155.173 34.5687 154.677 35.0647 154.053 35.4167C153.429 35.7527 152.725 35.9207 151.941 35.9207C149.061 35.9207 147.621 34.3047 147.621 31.0727V25.1687C147.621 24.7367 147.757 24.3927 148.029 24.1367C148.301 23.8807 148.661 23.7527 149.109 23.7527C149.573 23.7527 149.941 23.8807 150.213 24.1367C150.485 24.3927 150.621 24.7367 150.621 25.1687V31.0967C150.621 31.9287 150.789 32.5447 151.125 32.9447C151.461 33.3447 151.989 33.5447 152.709 33.5447C153.541 33.5447 154.205 33.2727 154.701 32.7287C155.213 32.1687 155.469 31.4327 155.469 30.5207V25.1687C155.469 24.7367 155.605 24.3927 155.877 24.1367C156.149 23.8807 156.509 23.7527 156.957 23.7527ZM168.143 23.7527C168.559 23.7207 168.887 23.8087 169.127 24.0167C169.367 24.2247 169.487 24.5367 169.487 24.9527C169.487 25.3847 169.383 25.7047 169.175 25.9127C168.967 26.1207 168.591 26.2567 168.047 26.3207L167.327 26.3927C166.383 26.4887 165.687 26.8087 165.239 27.3527C164.807 27.8967 164.591 28.5767 164.591 29.3927V34.4327C164.591 34.8967 164.447 35.2567 164.159 35.5127C163.871 35.7527 163.511 35.8727 163.079 35.8727C162.647 35.8727 162.287 35.7527 161.999 35.5127C161.727 35.2567 161.591 34.8967 161.591 34.4327V25.1447C161.591 24.6967 161.727 24.3527 161.999 24.1127C162.287 23.8727 162.639 23.7527 163.055 23.7527C163.471 23.7527 163.807 23.8727 164.063 24.1127C164.319 24.3367 164.447 24.6647 164.447 25.0967V26.0567C164.751 25.3527 165.199 24.8087 165.791 24.4247C166.399 24.0407 167.071 23.8247 167.807 23.7767L168.143 23.7527ZM182.646 35.9207C181.446 35.9207 180.39 35.6727 179.478 35.1767C178.582 34.6807 177.886 33.9687 177.39 33.0407C176.894 32.1127 176.646 31.0327 176.646 29.8007C176.646 28.5687 176.894 27.4967 177.39 26.5847C177.886 25.6567 178.582 24.9447 179.478 24.4487C180.39 23.9527 181.446 23.7047 182.646 23.7047C183.846 23.7047 184.894 23.9527 185.79 24.4487C186.702 24.9447 187.398 25.6567 187.878 26.5847C188.374 27.4967 188.622 28.5687 188.622 29.8007C188.622 31.0327 188.374 32.1127 187.878 33.0407C187.398 33.9687 186.702 34.6807 185.79 35.1767C184.894 35.6727 183.846 35.9207 182.646 35.9207ZM182.622 33.5927C183.598 33.5927 184.342 33.2727 184.854 32.6327C185.366 31.9927 185.622 31.0487 185.622 29.8007C185.622 28.5687 185.366 27.6327 184.854 26.9927C184.342 26.3367 183.606 26.0087 182.646 26.0087C181.686 26.0087 180.942 26.3367 180.414 26.9927C179.902 27.6327 179.646 28.5687 179.646 29.8007C179.646 31.0487 179.902 31.9927 180.414 32.6327C180.926 33.2727 181.662 33.5927 182.622 33.5927ZM197.651 23.7527C198.067 23.7207 198.395 23.8087 198.635 24.0167C198.875 24.2247 198.995 24.5367 198.995 24.9527C198.995 25.3847 198.891 25.7047 198.683 25.9127C198.475 26.1207 198.099 26.2567 197.555 26.3207L196.835 26.3927C195.891 26.4887 195.195 26.8087 194.747 27.3527C194.315 27.8967 194.099 28.5767 194.099 29.3927V34.4327C194.099 34.8967 193.955 35.2567 193.667 35.5127C193.379 35.7527 193.019 35.8727 192.587 35.8727C192.155 35.8727 191.795 35.7527 191.507 35.5127C191.235 35.2567 191.099 34.8967 191.099 34.4327V25.1447C191.099 24.6967 191.235 24.3527 191.507 24.1127C191.795 23.8727 192.147 23.7527 192.563 23.7527C192.979 23.7527 193.315 23.8727 193.571 24.1127C193.827 24.3367 193.955 24.6647 193.955 25.0967V26.0567C194.259 25.3527 194.707 24.8087 195.299 24.4247C195.907 24.0407 196.579 23.8247 197.315 23.7767L197.651 23.7527ZM209.844 18.6887C210.292 18.6887 210.66 18.8167 210.948 19.0727C211.236 19.3287 211.38 19.6647 211.38 20.0807V34.4327C211.38 34.8647 211.244 35.2087 210.972 35.4647C210.7 35.7207 210.34 35.8487 209.892 35.8487C209.444 35.8487 209.084 35.7207 208.812 35.4647C208.54 35.2087 208.404 34.8647 208.404 34.4327V33.8327C208.052 34.4887 207.54 35.0007 206.868 35.3687C206.212 35.7367 205.46 35.9207 204.612 35.9207C203.604 35.9207 202.7 35.6647 201.9 35.1527C201.116 34.6407 200.5 33.9207 200.052 32.9927C199.62 32.0487 199.404 30.9687 199.404 29.7527C199.404 28.5367 199.62 27.4727 200.052 26.5607C200.5 25.6487 201.116 24.9447 201.9 24.4487C202.684 23.9527 203.588 23.7047 204.612 23.7047C205.46 23.7047 206.212 23.8807 206.868 24.2327C207.524 24.5847 208.028 25.0807 208.38 25.7207V20.0327C208.38 19.6327 208.508 19.3127 208.764 19.0727C209.036 18.8167 209.396 18.6887 209.844 18.6887ZM205.404 33.5927C206.364 33.5927 207.1 33.2647 207.612 32.6087C208.14 31.9527 208.404 31.0167 208.404 29.8007C208.404 28.5847 208.14 27.6567 207.612 27.0167C207.1 26.3607 206.372 26.0327 205.428 26.0327C204.468 26.0327 203.724 26.3527 203.196 26.9927C202.668 27.6327 202.404 28.5527 202.404 29.7527C202.404 30.9687 202.668 31.9127 203.196 32.5847C203.724 33.2567 204.46 33.5927 205.404 33.5927ZM223.754 32.5127C224.026 32.5127 224.242 32.6167 224.402 32.8247C224.578 33.0327 224.666 33.3127 224.666 33.6647C224.666 34.1607 224.37 34.5767 223.778 34.9127C223.234 35.2167 222.618 35.4647 221.93 35.6567C221.242 35.8327 220.586 35.9207 219.962 35.9207C218.074 35.9207 216.578 35.3767 215.474 34.2887C214.37 33.2007 213.818 31.7127 213.818 29.8247C213.818 28.6247 214.058 27.5607 214.538 26.6327C215.018 25.7047 215.69 24.9847 216.554 24.4727C217.434 23.9607 218.426 23.7047 219.53 23.7047C220.586 23.7047 221.506 23.9367 222.29 24.4007C223.074 24.8647 223.682 25.5207 224.114 26.3687C224.546 27.2167 224.762 28.2167 224.762 29.3687C224.762 30.0567 224.458 30.4007 223.85 30.4007H216.77C216.866 31.5047 217.178 32.3207 217.706 32.8487C218.234 33.3607 219.002 33.6167 220.01 33.6167C220.522 33.6167 220.97 33.5527 221.354 33.4247C221.754 33.2967 222.202 33.1207 222.698 32.8967C223.178 32.6407 223.53 32.5127 223.754 32.5127ZM219.602 25.8167C218.786 25.8167 218.13 26.0727 217.634 26.5847C217.154 27.0967 216.866 27.8327 216.77 28.7927H222.194C222.162 27.8167 221.922 27.0807 221.474 26.5847C221.026 26.0727 220.402 25.8167 219.602 25.8167ZM233.768 23.7527C234.184 23.7207 234.512 23.8087 234.752 24.0167C234.992 24.2247 235.112 24.5367 235.112 24.9527C235.112 25.3847 235.008 25.7047 234.8 25.9127C234.592 26.1207 234.216 26.2567 233.672 26.3207L232.952 26.3927C232.008 26.4887 231.312 26.8087 230.864 27.3527C230.432 27.8967 230.216 28.5767 230.216 29.3927V34.4327C230.216 34.8967 230.072 35.2567 229.784 35.5127C229.496 35.7527 229.136 35.8727 228.704 35.8727C228.272 35.8727 227.912 35.7527 227.624 35.5127C227.352 35.2567 227.216 34.8967 227.216 34.4327V25.1447C227.216 24.6967 227.352 24.3527 227.624 24.1127C227.912 23.8727 228.264 23.7527 228.68 23.7527C229.096 23.7527 229.432 23.8727 229.688 24.1127C229.944 24.3367 230.072 24.6647 230.072 25.0967V26.0567C230.376 25.3527 230.824 24.8087 231.416 24.4247C232.024 24.0407 232.696 23.8247 233.432 23.7767L233.768 23.7527Z" fill="white"/>
</svg>
